<svg width="2192" height="280" viewBox="0 0 2192 280" fill="none" xmlns="http://www.w3.org/2000/svg">
<path d="M72.8507 44.6726H241.387C246.101 44.6726 250.082 43.0546 253.331 39.8066C256.572 36.5656 258.197 32.5846 258.197 27.8636C258.197 25.5066 257.754 23.2947 256.87 21.2277C255.985 19.1677 254.803 17.3987 253.331 15.9197C251.852 14.4477 250.082 13.2656 248.023 12.3816C245.956 11.4966 243.744 11.0547 241.388 11.0547H72.8507C52.7937 11.0547 35.6927 18.2087 21.5377 32.5087C7.38269 46.8167 0.304688 63.9916 0.304688 84.0426C0.304688 104.101 7.38269 121.277 21.5377 135.577C35.6927 149.885 52.7927 157.031 72.8507 157.031H185.208C196.115 157.031 205.404 160.868 213.076 168.533C220.742 176.205 224.578 185.418 224.578 196.179C224.578 206.948 220.742 216.161 213.076 223.826C205.404 231.499 196.115 235.328 185.208 235.328H17.1147C12.3937 235.328 8.41268 236.952 5.17068 240.193C1.92268 243.442 0.304688 247.423 0.304688 252.137C0.304688 255.385 1.03769 258.26 2.51669 260.763C3.98869 263.272 5.9787 265.262 8.4877 266.735C10.9897 268.207 13.8657 268.947 17.1137 268.947H185.208C205.26 268.947 222.435 261.869 236.742 247.713C251.042 233.558 258.196 216.382 258.196 196.179C258.196 175.983 251.042 158.8 236.742 144.645C222.434 130.489 205.259 123.411 185.208 123.411H72.8507C62.2347 123.411 53.0907 119.506 45.4247 111.69C37.7527 103.879 33.9237 94.5886 33.9237 83.8196C33.9237 73.0586 37.7527 63.8446 45.4247 56.1726C53.0907 48.5076 62.2347 44.6726 72.8507 44.6726Z" fill="#081997"/>
<path d="M570.778 38.2109C565.762 44.7849 560.744 51.3569 555.73 57.9319C553.902 60.3299 552.073 62.7279 550.243 65.1259C552.237 66.8449 554.201 68.6359 556.116 70.5499C574.84 89.2809 584.205 111.766 584.205 138.009C584.205 164.26 574.839 186.667 556.116 205.246C537.385 223.825 514.901 233.114 488.657 233.114C478.809 233.114 469.501 231.806 460.734 229.191L456.549 232.545C447.962 239.43 439.395 246.341 430.824 253.247C448.344 262.214 467.684 266.734 488.878 266.734C524.411 266.734 554.788 254.126 580.002 228.913C605.216 203.698 617.823 173.329 617.823 137.788C617.823 102.254 605.216 71.8769 580.002 46.6619C577.002 43.6629 573.924 40.8539 570.778 38.2109Z" fill="#081997"/>
<path d="M960.645 79.6188C955.925 79.6188 951.943 81.2428 948.702 84.4838C945.453 87.7328 943.835 91.7138 943.835 96.4278V234.442L776.184 23.4388C775.887 22.8528 775.445 22.4089 774.858 22.1129C770.137 17.3989 764.609 14.3708 758.27 13.0438C751.924 11.7178 745.662 12.3118 739.469 14.8138C733.277 17.3228 728.409 21.3039 724.87 26.7579C721.331 32.2179 719.562 38.3348 719.562 45.1148V253.463C719.562 258.184 721.18 262.166 724.428 265.407C727.669 268.648 731.65 270.272 736.371 270.272C739.316 270.272 742.122 269.534 744.776 268.061C747.43 266.589 749.489 264.598 750.969 262.09C752.442 259.587 753.182 256.712 753.182 253.463V48.2119L919.506 257.887C921.566 260.541 923.929 262.752 926.584 264.522C931.892 268.351 937.933 270.272 944.721 270.272C950.029 270.272 955.185 269.09 960.203 266.734C963.742 264.965 966.763 262.607 969.272 259.656C971.774 256.711 973.764 253.318 975.244 249.481C976.717 245.652 977.455 241.817 977.455 237.98V96.4278C977.455 91.7138 975.831 87.7328 972.59 84.4838C969.339 81.2428 965.36 79.6188 960.645 79.6188Z" fill="#081997"/>
<path d="M1104.4 72.9835C1101.75 71.5115 1098.94 70.7715 1096 70.7715C1091.28 70.7715 1087.3 72.4715 1084.06 75.8585C1080.81 79.2535 1079.19 83.1585 1079.19 87.5815V250.809C1079.19 255.53 1080.81 259.511 1084.06 262.752C1087.3 266.001 1091.28 267.619 1096 267.619C1098.94 267.619 1101.75 266.886 1104.4 265.406C1107.06 263.934 1109.12 261.868 1110.6 259.213C1112.07 256.559 1112.81 253.759 1112.81 250.808V87.5804C1112.81 84.6354 1112.07 81.8305 1110.6 79.1755C1109.12 76.5225 1107.06 74.4625 1104.4 72.9835Z" fill="#081997"/>
<path d="M1095.78 7.95703C1091.2 7.95703 1087.3 9.582 1084.06 12.823C1080.81 16.072 1079.19 20.053 1079.19 24.766C1079.19 27.717 1079.92 30.516 1081.4 33.171C1082.88 35.825 1084.87 37.892 1087.37 39.364C1089.88 40.843 1092.75 41.576 1096 41.576C1100.42 41.576 1104.33 39.9581 1107.72 36.7111C1111.11 33.4681 1112.81 29.487 1112.81 24.767C1112.81 20.054 1111.11 16.073 1107.72 12.824C1104.33 9.58197 1100.35 7.95703 1095.78 7.95703Z" fill="#081997"/>
<path d="M1455.63 9.72754H1343.27C1307.88 9.72754 1277.58 22.3345 1252.37 47.5485C1227.15 72.7635 1214.55 103.139 1214.55 138.673C1214.55 174.213 1227.15 204.584 1252.37 229.798C1277.58 255.013 1307.88 267.62 1343.27 267.62H1399.45C1404.16 267.62 1408.14 266.002 1411.39 262.754C1414.63 259.513 1416.26 255.532 1416.26 250.811C1416.26 246.097 1414.63 242.115 1411.39 238.867C1408.14 235.624 1404.16 234.001 1399.45 234.001H1343.27C1317.02 234.001 1294.61 224.642 1276.03 205.911C1257.45 187.188 1248.17 164.705 1248.17 138.453C1248.17 112.21 1257.46 89.7935 1276.03 71.2155C1294.61 52.6365 1317.02 43.3475 1343.27 43.3475H1455.63C1460.34 43.3475 1464.32 41.6545 1467.57 38.2605C1470.81 34.8735 1472.44 30.8925 1472.44 26.3175C1472.44 21.7485 1470.81 17.8425 1467.57 14.5945C1464.32 11.3515 1460.34 9.72754 1455.63 9.72754Z" fill="#081997"/>
<path d="M1815.26 11.0537H1702.9C1698.48 11.0537 1694.56 12.6777 1691.18 15.9187C1687.78 19.1677 1686.09 23.1488 1686.09 27.8628C1686.09 32.5838 1687.78 36.5648 1691.18 39.8058C1694.56 43.0548 1698.48 44.6718 1702.9 44.6718H1798.45V139.777C1798.45 166.028 1789.08 188.436 1770.36 207.014C1751.63 225.593 1729.14 234.882 1702.9 234.882C1676.65 234.882 1654.24 225.593 1635.66 207.014C1617.08 188.435 1607.79 166.027 1607.79 139.777C1607.79 135.064 1606.09 131.006 1602.71 127.612C1599.31 124.225 1595.33 122.525 1590.76 122.525C1586.19 122.525 1582.28 124.225 1579.04 127.612C1575.79 131.005 1574.18 135.063 1574.18 139.777C1574.18 175.165 1586.78 205.467 1612 230.681C1637.21 255.894 1667.58 268.501 1703.12 268.501C1738.65 268.501 1769.03 255.894 1794.25 230.681C1819.46 205.466 1832.07 175.165 1832.07 139.777V27.8618C1832.07 23.1478 1830.44 19.1667 1827.2 15.9177C1823.95 12.6777 1819.97 11.0537 1815.26 11.0537Z" fill="#FFC503"/>
<path d="M2170.24 142.875C2155.94 128.719 2138.76 121.641 2118.71 121.641H2006.35C1995.73 121.641 1986.59 117.812 1978.93 110.14C1971.25 102.476 1967.42 93.1861 1967.42 82.2721C1967.42 71.3651 1971.25 62.0762 1978.93 54.4042C1986.59 46.7402 1995.73 42.9031 2006.35 42.9031H2118.71C2123.42 42.9031 2127.4 41.2861 2130.65 38.0371C2133.89 34.7961 2135.52 30.8151 2135.52 26.0941C2135.52 21.3801 2133.89 17.3991 2130.65 14.1501C2127.4 10.9091 2123.42 9.28516 2118.71 9.28516H2006.35C1986.29 9.28516 1969.19 16.4391 1955.04 30.7391C1940.88 45.0471 1933.81 62.2221 1933.81 82.2731C1933.81 102.331 1940.88 119.507 1955.04 133.807C1969.19 148.115 1986.29 155.261 2006.35 155.261H2118.71C2125.79 155.261 2132.35 157.031 2138.39 160.569C2144.43 164.108 2149.23 168.905 2152.77 174.946C2156.31 180.993 2158.08 187.553 2158.08 194.631C2158.08 205.247 2154.24 214.391 2146.58 222.056C2138.9 229.729 2129.61 233.558 2118.71 233.558H1950.61C1945.89 233.558 1941.91 235.258 1938.67 238.645C1935.42 242.038 1933.8 246.019 1933.8 250.588C1933.8 255.164 1935.42 259.069 1938.67 262.311C1941.91 265.56 1945.89 267.177 1950.61 267.177H2118.71C2138.76 267.177 2155.93 260.099 2170.24 245.943C2184.54 231.788 2191.69 214.612 2191.69 194.409C2191.7 174.213 2184.54 157.03 2170.24 142.875Z" fill="#FFC503"/>
<path d="M450.023 225.195L470.024 209.167C486.64 195.66 503.064 181.902 520.11 168.916C521.24 168.055 523.01 167.23 522.113 165.4C521.27 163.684 519.632 163.098 517.629 163.277C509.115 164.042 500.613 162.739 492.092 162.924C490.968 162.948 489.324 163.145 488.929 161.674C488.558 160.305 490.017 159.611 490.848 158.78C497.108 152.538 503.422 146.35 509.664 140.089C518.967 130.762 528.229 121.375 537.515 112.023C539.363 110.164 541.216 108.31 543.064 106.451C545.719 103.79 548.373 101.136 551.022 98.4692C551.596 97.8902 552.281 97.3282 552.268 96.5292C552.264 96.2722 552.19 95.9912 552.014 95.6762C551.458 94.6952 550.573 94.5762 549.545 94.7192C548.887 94.8152 548.23 94.9042 547.572 94.9942C543.728 95.5322 539.883 96.0702 536.039 96.6022C532.398 97.1072 528.758 97.6222 525.117 98.1312C520.955 98.7132 516.793 99.2892 512.631 99.8792C511.489 100.04 510.222 101.541 509.277 100.387C508.858 99.8791 508.846 99.3591 509.026 98.8561C509.295 98.1151 509.983 97.4151 510.413 96.8351C513.827 92.2551 517.295 87.7111 520.769 83.1731C522.509 80.9011 524.249 78.6291 525.983 76.3511C530.665 70.2101 535.352 64.0701 540.034 57.9291C540.124 57.8101 540.215 57.6922 540.305 57.5742C547.153 48.5942 554.005 39.6161 560.858 30.6381C561.346 29.9981 561.835 29.3582 562.323 28.7182C564.482 25.8902 566.638 23.0602 568.799 20.2322C572.996 14.7312 577.253 9.27822 581.469 3.79022C581.732 3.44322 582.007 3.07214 582.186 2.68414C582.455 2.09814 582.485 1.48814 581.851 0.908138C581.026 0.155138 580.051 0.758205 579.256 1.32721C578.586 1.79921 577.923 2.28422 577.301 2.81622C575.095 4.70522 572.9 6.61322 570.706 8.51422C566.748 11.9522 562.784 15.3902 558.73 18.7082C556.287 20.7112 553.865 22.7362 551.429 24.7462C532.74 14.1652 511.899 8.84015 488.88 8.84015C453.34 8.84015 422.969 21.4472 397.755 46.6602C372.541 71.8752 359.934 102.252 359.934 137.786C359.934 173.326 372.541 203.696 397.755 228.911C401.901 233.057 406.2 236.827 410.625 240.292C401.61 251.432 392.589 262.569 383.591 273.721C382.383 275.21 379.836 276.872 380.846 278.612C380.924 278.756 381.019 278.893 381.151 279.037C382.472 280.466 384.643 277.734 386.084 276.58C392.757 271.247 399.417 265.895 406.066 260.538C409.773 257.554 413.483 254.573 417.19 251.586C418.664 250.398 420.141 249.213 421.615 248.025C428.025 242.861 434.431 237.692 440.853 232.544L450.023 225.195ZM393.551 138.009C393.551 111.766 402.841 89.2812 421.419 70.5502C439.998 51.8272 462.406 42.4612 488.657 42.4612C500.93 42.4612 512.369 44.5361 522.997 48.6321C519.627 51.5371 516.263 54.4482 512.928 57.3942C506.853 62.7452 500.563 67.8632 494.261 72.9582C490.082 76.3362 485.89 79.7021 481.747 83.1221C474.207 89.3521 466.71 95.6422 459.218 101.926C452.127 107.881 445.036 113.83 438.028 119.875C436.892 120.849 434.973 121.782 435.893 123.815C436.724 125.651 438.667 125.232 440.234 125.393L452.379 124.794L466.53 124.096C467.561 123.994 468.722 123.839 469.42 124.728C469.454 124.772 469.493 124.806 469.526 124.855C470.543 126.416 468.856 126.96 468.139 127.797C461.831 135.115 455.523 142.434 449.161 149.704C441 159.043 432.808 168.353 424.617 177.662C422.471 180.095 420.342 182.541 418.195 184.974C417.161 186.146 416.066 187.246 416.957 188.896C417.89 190.624 419.642 190.648 421.28 190.498C425.414 190.131 429.543 190.009 433.676 190.006C433.918 190.006 434.161 190.001 434.404 190.002C437.115 190.011 439.826 190.07 442.538 190.147C445.12 190.221 447.704 190.312 450.29 190.396C450.565 192.016 449.411 192.752 448.67 193.655C447.337 195.281 446.003 196.902 444.67 198.522C440.355 203.774 436.05 209.036 431.742 214.294C428.18 211.569 424.735 208.561 421.418 205.243C402.841 186.667 393.551 164.26 393.551 138.009Z" fill="#FFC503"/>
</svg>
